<?xml version="1.0" standalone="no"?>
<!DOCTYPE svg PUBLIC "-//W3C//DTD SVG 20010904//EN"
 "http://www.w3.org/TR/2001/REC-SVG-20010904/DTD/svg10.dtd">
<svg version="1.0" xmlns="http://www.w3.org/2000/svg"
 width="512.000000pt" height="512.000000pt" viewBox="0 0 512.000000 512.000000"
 preserveAspectRatio="xMidYMid meet">
<metadata>
Created by potrace 1.11, written by Peter Selinger 2001-2013
</metadata>
<g transform="translate(0.000000,512.000000) scale(0.100000,-0.100000)"
fill="#000000" stroke="none">
<path d="M2448 3848 c-54 -4 -96 -12 -110 -22 -12 -9 -34 -16 -49 -16 -15 0
-32 -7 -39 -15 -7 -8 -20 -15 -29 -15 -9 0 -33 -9 -54 -20 -20 -11 -48 -20
-61 -20 -13 0 -29 -6 -35 -14 -7 -8 -25 -18 -41 -21 -16 -3 -34 -13 -41 -21
-6 -8 -20 -14 -30 -14 -10 0 -21 -5 -25 -11 -3 -6 -21 -18 -38 -26 -17 -8 -49
-25 -71 -38 -22 -14 -50 -29 -63 -35 -13 -5 -30 -17 -38 -25 -9 -8 -21 -15
-28 -15 -8 0 -19 -7 -26 -15 -7 -8 -18 -15 -26 -15 -7 0 -24 -10 -37 -22 -288
-266 -447 -426 -447 -450 0 -4 -7 -8 -15 -8 -8 0 -15 -4 -15 -8 0 -9 -39 -60
-62 -81 -10 -8 -18 -21 -18 -29 0 -7 -7 -15 -15 -18 -8 -4 -15 -12 -15 -20 0
-7 -8 -19 -17 -26 -19 -14 -33 -35 -69 -108 -39 -78 -64 -142 -64 -164 0 -11
-10 -41 -21 -66 -20 -41 -21 -63 -21 -270 0 -211 1 -228 21 -265 11 -22 21
-53 21 -70 1 -16 7 -41 15 -55 8 -14 14 -40 15 -57 0 -26 -4 -33 -19 -33 -11
0 -23 4 -26 10 -4 6 -26 0 -55 -15 -27 -14 -55 -25 -62 -25 -7 -1 -31 -9 -53
-20 -22 -11 -49 -19 -59 -20 -20 0 -197 -60 -251 -85 -16 -8 -66 -28 -110 -46
-45 -18 -94 -47 -112 -65 -85 -84 -4 -199 167 -238 186 -42 798 -64 1305 -47
182 6 411 14 510 17 395 11 748 24 900 34 88 5 349 14 580 20 432 10 682 24
770 40 202 39 273 61 370 115 104 58 155 127 155 208 0 43 -6 61 -29 93 -16
21 -32 49 -35 62 -5 13 -15 22 -27 22 -30 0 -34 28 -11 74 42 79 55 122 67
211 23 169 -6 287 -111 445 -24 37 -44 70 -44 74 0 13 -213 216 -260 249 -25
17 -46 34 -48 39 -2 4 -9 8 -15 8 -12 0 -90 51 -95 63 -2 4 -11 7 -20 7 -9 0
-30 9 -47 20 -16 11 -38 20 -47 20 -9 0 -23 6 -31 14 -8 8 -52 34 -98 58 -120
62 -229 129 -229 139 0 5 -7 9 -15 9 -8 0 -35 16 -61 35 -25 19 -50 35 -55 35
-5 0 -31 15 -57 33 -26 18 -58 38 -72 45 -55 28 -76 42 -107 69 -18 15 -58 46
-89 68 -30 22 -77 59 -104 81 -87 75 -217 154 -310 190 -152 58 -312 78 -512
62z"/>
</g>
</svg>
